<?xml version="1.0" encoding="utf-8"?>
<!-- Generator: Adobe Illustrator 16.0.3, SVG Export Plug-In . SVG Version: 6.00 Build 0)  -->
<!DOCTYPE svg PUBLIC "-//W3C//DTD SVG 1.1//EN" "http://www.w3.org/Graphics/SVG/1.1/DTD/svg11.dtd">
<svg version="1.1" id="Layer_1" xmlns="http://www.w3.org/2000/svg" xmlns:xlink="http://www.w3.org/1999/xlink" x="0px" y="0px"
	 width="1296px" height="600px" viewBox="0 564 1296 600" enable-background="new 0 564 1296 600" xml:space="preserve">
<path fill="#51B848" d="M672.18,827.223c-13.055-13.054-210.107-191.845-229.953-206.756c-19.846-14.912-38.334-14.47-60.792,0
	c-22.458,14.471-216.32,191.827-229.956,206.756c-13.634,14.93-19.823,33.075-19.823,41.996v207.215
	c0,22.418,14.267,31.014,34.794,34.793c58.766,10.821,103.613,6.959,229.643,6.959c126.029,0,198.708,2.315,262.081-6.959
	c22.217-3.25,34.793-16.24,34.793-34.793c0,0,0-195.614,0-207.215C692.967,857.616,685.234,840.276,672.18,827.223z"/>
<g>
	<g>
		<path fill="#FFFFFF" d="M477.346,1042.852c0-2.151,0.163-5.22,0.494-9.193c0.335-3.977,0.832-8.529,1.493-13.666
			c0.661-5.134,1.407-10.562,2.238-16.276c0.827-5.715,1.653-11.387,2.484-17.021c1.821-13.249,4.058-27.495,6.705-42.737h-3.726
			c-1.987,2.487-4.267,6.211-6.832,11.183c-2.569,4.969-6.172,12.261-10.807,21.866c-4.638,9.607-10.562,22.072-17.767,37.396
			c-7.205,15.322-16.524,34.497-27.953,57.521c-3.318,6.791-7.169,11.391-11.555,13.788c-4.396,2.404-9.233,3.604-14.539,3.604
			c-6.791,0-12.259-1.45-16.398-4.351c-4.138-2.895-7.329-6.791-9.565-11.679c-2.236-4.884-3.727-10.434-4.471-16.646
			c-0.748-6.212-1.119-12.63-1.119-19.258c0-6.791,0.412-14.822,1.244-24.102c0.826-9.273,1.899-19.046,3.228-29.321
			c1.327-10.268,2.858-20.744,4.598-31.43c1.74-10.685,3.557-20.912,5.466-30.688c1.905-9.771,3.852-18.718,5.841-26.834
			c1.986-8.115,3.81-14.741,5.466-19.879c1.656-5.301,3.229-9.523,4.721-12.672c1.493-3.146,3.186-5.591,5.095-7.33
			c1.903-1.739,4.185-2.896,6.832-3.479c2.65-0.579,6.049-0.87,10.189-0.87c6.297,0,11.219,0.209,14.782,0.622
			c3.559,0.414,6.211,1.408,7.951,2.98c1.739,1.576,2.774,3.852,3.104,6.832c0.335,2.983,0.496,7.042,0.496,12.175
			c0,2.818-0.122,6.05-0.371,9.69c-0.247,3.647-0.621,7.539-1.117,11.68c-0.498,4.142-1.037,8.408-1.614,12.794
			c-0.582,4.396-1.203,8.658-1.864,12.8c-1.49,9.775-3.064,19.877-4.722,30.312l2.734,2.981c0.333-0.496,2.111-3.644,5.339-9.441
			c3.23-5.795,7.206-12.753,11.929-20.872c4.722-8.113,9.813-16.604,15.284-25.468c5.463-8.859,10.681-16.688,15.65-23.481
			c4.807-6.788,9.895-12.423,15.281-16.896c5.382-4.474,11.804-6.708,19.259-6.708c6.957,0,12.919,2.03,17.891,6.087
			c4.97,4.061,7.453,9.812,7.453,17.271c0,6.461-0.412,12.591-1.244,18.385c-0.831,5.802-1.861,11.431-3.103,16.897
			c-1.244,5.464-2.528,10.809-3.854,16.024c-1.328,5.219-2.568,10.561-3.729,16.027c-0.827,3.812-1.325,6.213-1.488,7.206
			c-0.163,0.994-0.247,1.656-0.247,1.986l2.732,2.981c0.331-0.496,2.235-3.603,5.713-9.317c3.479-5.715,7.742-12.628,12.796-20.747
			c5.049-8.113,10.438-16.646,16.153-25.592c5.713-8.945,11.057-16.812,16.025-23.606c4.805-6.625,9.604-12.215,14.411-16.771
			c4.805-4.553,10.685-6.832,17.639-6.832c7.788,0,14.368,2.03,19.755,6.087c5.383,4.061,8.076,9.812,8.076,17.271
			c0,11.429-0.582,22.278-1.739,32.547c-1.157,10.274-2.485,20.378-3.979,30.317c-1.488,9.938-2.812,20.001-3.973,30.187
			c-1.158,10.188-1.74,20.999-1.74,32.427c0,8.945,1.16,16.234,3.479,21.866c2.322,5.634,5.134,8.448,8.449,8.448
			c3.478,0,7.122-0.748,10.933-2.237c3.811-1.49,7.701-3.395,11.678-5.713c3.978-2.319,7.866-5.012,11.679-8.077
			c3.812-3.062,7.455-6.25,10.933-9.564c8.116-7.62,16.15-16.233,24.103-25.841l4.223,58.639
			c-7.286,5.801-14.536,11.803-21.741,18.017c-7.205,6.209-14.825,11.843-22.858,16.894c-8.034,5.054-16.855,9.192-26.462,12.425
			c-9.606,3.229-20.457,4.847-32.546,4.847c-5.967,0-10.979-1.948-15.037-5.84c-4.06-3.893-7.33-9.319-9.813-16.273
			c-2.486-6.959-4.27-15.158-5.341-24.6c-1.081-9.441-1.617-19.712-1.617-30.812c0-10.437,0.374-21.492,1.119-33.172
			c0.745-11.678,1.778-23.479,3.105-35.405h-3.728l-50.44,128.46c-4.307,6.956-9.106,11.64-14.409,14.037
			c-5.305,2.404-11.434,3.604-18.389,3.604c-5.304,0-9.525-1.45-12.67-4.351c-3.148-2.895-5.595-6.623-7.33-11.181
			c-1.739-4.556-2.904-9.568-3.479-15.032C477.634,1053.285,477.346,1047.986,477.346,1042.852z"/>
		<path fill="#51B848" d="M851.047,1036.391c-5.962,5.467-13.376,11.305-22.236,17.516c-8.863,6.214-18.428,11.929-28.698,17.147
			c-10.271,5.216-20.746,9.563-31.433,13.043c-10.685,3.479-20.833,5.22-30.438,5.22c-8.61,0-15.861-1.2-21.742-3.604
			c-5.88-2.397-10.646-5.756-14.284-10.063c-3.643-4.305-6.257-9.563-7.829-15.774c-1.573-6.214-2.358-13.048-2.358-20.5
			c0-10.437,1.197-22.568,3.604-36.402c2.398-13.829,5.342-28.158,8.82-42.983c3.479-14.823,7.161-29.608,11.057-44.354
			c3.893-14.742,7.33-28.327,10.313-40.749c1.157-4.307,3.479-7.994,6.957-11.059c3.477-3.063,7.409-5.548,11.802-7.454
			c4.388-1.903,8.945-3.312,13.668-4.226c4.719-0.907,8.98-1.365,12.794-1.365c6.956,0,11.68,1.286,14.162,3.851
			c2.487,2.57,3.729,6.006,3.729,10.312c0,3.646-0.829,8.905-2.484,15.777c-1.655,6.878-3.727,14.661-6.211,23.359
			c-2.484,8.693-5.136,18.054-7.953,28.075c-2.817,10.022-5.466,20.045-7.948,30.062c-2.487,10.026-4.558,19.798-6.214,29.321
			c-1.653,9.527-2.484,18.099-2.484,25.719c0,7.453,0.831,13.376,2.484,17.764c1.656,4.394,5.057,6.586,10.188,6.586
			c5.963,0,12.589-2.067,19.877-6.212c7.289-4.139,14.66-9.15,22.113-15.033c7.454-5.878,14.744-11.966,21.865-18.263
			c7.122-6.293,13.417-11.68,18.883-16.15v50.439H851.047z M739.979,780.959c0-3.809,0.832-8.114,2.487-12.92
			c1.653-4.803,4.347-9.318,8.073-13.542c3.729-4.225,8.698-7.783,14.909-10.683c6.214-2.898,13.956-4.35,23.231-4.35
			c5.801,0,11.269,0.664,16.4,1.987c5.133,1.328,9.604,3.354,13.414,6.088c3.814,2.732,6.834,6.336,9.072,10.808
			c2.235,4.475,3.353,9.776,3.353,15.904c0,5.631-0.908,11.099-2.731,16.399c-1.823,5.302-4.721,10.021-8.695,14.161
			c-3.977,4.143-8.988,7.497-15.032,10.064c-6.051,2.569-13.292,3.852-21.741,3.852c-14.576,0-25.346-3.438-32.302-10.312
			C743.459,801.543,739.979,792.389,739.979,780.959z"/>
		<path fill="#51B848" d="M901.027,1089.314c-8.945,0-17.267-3.935-24.969-11.802c-7.701-7.869-14.41-18.43-20.126-31.682
			c-5.713-13.251-10.187-28.614-13.419-46.092c-3.229-17.476-4.848-35.82-4.848-55.036c0-14.742,1.078-30.77,3.229-48.081
			c2.157-17.308,5.305-35.157,9.441-53.545c4.146-18.388,9.075-36.856,14.79-55.409c5.713-18.551,12.176-36.359,19.381-53.421
			c7.206-17.061,15.027-33.004,23.478-47.831c8.444-14.824,17.312-27.746,26.584-38.762c9.278-11.017,18.97-19.668,29.071-25.967
			c10.107-6.293,20.374-9.44,30.812-9.44c7.127,0,13.003,1.615,17.642,4.844c4.643,3.231,8.284,7.498,10.932,12.796
			c2.655,5.305,4.514,11.308,5.599,18.016c1.071,6.708,1.608,13.542,1.608,20.499c0,15.571-1.778,31.431-5.338,47.583
			c-3.566,16.15-8.367,32.386-14.41,48.699c-6.056,16.317-13.051,32.675-21.004,49.073c-7.948,16.399-16.229,32.675-24.845,48.826
			c-8.614,16.151-17.266,32.053-25.962,47.706c-8.698,15.654-16.854,30.936-24.479,45.846c-0.824,1.655-1.698,3.811-2.604,6.46
			c-0.913,2.65-1.783,5.507-2.611,8.571c-0.824,3.065-1.653,6.334-2.484,9.812c-0.825,3.479-1.491,6.878-1.987,10.188v3.479
			c0,4.309,0.456,8.489,1.371,12.547c0.906,4.062,2.027,7.701,3.348,10.935c1.328,3.229,2.734,5.799,4.228,7.701
			c1.488,1.905,2.902,2.855,4.223,2.855c3.151,0,6.748-0.661,10.814-1.985c4.055-1.325,8.357-3.107,12.921-5.344
			c4.553-2.235,9.231-4.806,14.032-7.701c4.808-2.897,9.44-5.838,13.912-8.823c10.438-6.954,21.371-14.989,32.802-24.1
			l20.375,52.179c-14.739,10.602-29.32,20.043-43.729,28.324c-6.293,3.479-12.794,6.918-19.501,10.312
			c-6.71,3.396-13.462,6.42-20.256,9.068c-6.791,2.651-13.419,4.764-19.877,6.338
			C912.704,1088.529,906.66,1089.314,901.027,1089.314z M901.276,890.536c7.452-13.251,15.363-28.159,23.731-44.724
			c8.358-16.563,16.271-33.627,23.725-51.188c7.455-17.557,13.916-35.075,19.383-52.551s8.94-33.75,10.434-48.825
			c0-4.804-0.119-8.904-0.366-12.3c-0.247-3.395-1.038-5.092-2.364-5.092c-4.801,0-9.979,3.104-15.525,9.316
			c-5.555,6.212-11.104,14.621-16.646,25.221c-5.556,10.604-10.854,22.943-15.904,37.021c-5.059,14.081-9.57,29.072-13.546,44.974
			c-3.974,15.902-7.121,32.263-9.441,49.074C902.438,858.276,901.276,874.632,901.276,890.536z"/>
	</g>
	<path fill="#51B848" d="M1159.499,933.646c-2.405-10.684-6.01-20.829-10.813-30.437l0.213-0.294
		c-15.635-26.848-40.37-45.822-69.013-50.818c-10.942,1.543-21.142,4.447-30.592,8.746c-14.737,6.707-27.203,15.904-37.39,27.579
		c-10.188,11.68-18.021,25.43-23.485,41.249c-5.466,15.818-8.2,32.839-8.2,51.062c0,13.254,1.531,26.338,4.604,39.259
		c3.061,12.92,7.908,24.516,14.531,34.784c6.629,10.274,15.115,18.598,25.473,24.974c10.348,6.377,22.814,9.566,37.392,9.566
		c10.107,0,19.629-1.739,28.574-5.22c8.945-3.479,17.187-8.199,24.729-14.161c7.531-5.966,14.241-13.004,20.127-21.121
		c5.873-8.114,10.839-16.812,14.906-26.092c4.056-9.272,7.16-18.883,9.312-28.821c2.156-9.94,3.229-19.794,3.229-29.565
		C1163.096,954.561,1161.895,944.33,1159.499,933.646z M1111.791,982.597c-2.405,10.521-5.595,20.124-9.57,28.822
		c-3.978,8.696-8.611,15.902-13.915,21.615c-5.296,5.717-10.765,8.573-16.399,8.573c-6.46,0-12.005-1.365-16.646-4.101
		c-4.638-2.733-8.365-6.377-11.179-10.935c-2.816-4.553-4.889-9.896-6.216-16.023c-1.321-6.13-1.987-12.672-1.987-19.631
		c0-10.103,1.328-20.622,3.976-31.557c2.653-10.933,6.299-20.91,10.934-29.939c4.641-9.025,10.025-16.439,16.15-22.239
		c6.135-5.795,12.595-8.695,19.384-8.695c5.138,0,9.523,1.409,13.167,4.225c3.646,2.817,6.629,6.628,8.944,11.43
		c2.322,4.806,4.061,10.478,5.221,17.021c1.161,6.542,1.736,13.625,1.736,21.243
		C1115.389,962.015,1114.188,972.077,1111.791,982.597z"/>
</g>
</svg>
